# xmcd
#
# Track frame offsets:
#	150
#	15578
#	30691
#	44004
#	58807
#	70441
#	84910
#	97736
#	112161
#	126181
#	139364
#	154453
#	167099
#	180231
#	194562
#	207888
#	220667
#	234294
#
# Disc length: 3301 seconds
#
# Revision: 0
# Processed by: cddbd v1.5PL3 Copyright (c) Steve Scherf et al.
# Submitted via: dBpowerAMP V4.0
#
DISCID=010ce312
DTITLE=Casey Bill Weldon - The Essential Casey Bill Weldon [CD1]
DYEAR=1900
DGENRE=Blues
TTITLE0=Two-Timing Woman
TTITLE1=Somebody Changed the Lock on My Door
TTITLE2=Street Walkin' Blues  (with The Washboard Rhythm Kings)
TTITLE3=W.P.A. Blues
TTITLE4=Has My Gal Been Here
TTITLE5=The Big Boat
TTITLE6=Lady Doctor Blues
TTITLE7=Back Door Blues
TTITLE8=Front Door Blues
TTITLE9=Red Hot Blues
TTITLE10=Casey Blues
TTITLE11=Brown Skin Mama  (with The Washboard Rhythm Kings)
TTITLE12=I Got a Letter This Morning
TTITLE13=You Talk in Your Sleep
TTITLE14=Guitar Swing
TTITLE15=Rooster Blues
TTITLE16=Oh Red! (with Arnett Nelson and His Hot Four)
TTITLE17=Sales Lady
EXTD=
EXTT0=
EXTT1=
EXTT2=
EXTT3=
EXTT4=
EXTT5=
EXTT6=
EXTT7=
EXTT8=
EXTT9=
EXTT10=
EXTT11=
EXTT12=
EXTT13=
EXTT14=
EXTT15=
EXTT16=
EXTT17=
PLAYORDER=
